<?xml version="1.0" standalone="no"?>
<!DOCTYPE svg PUBLIC "-//W3C//DTD SVG 20010904//EN"
 "http://www.w3.org/TR/2001/REC-SVG-20010904/DTD/svg10.dtd">
<svg version="1.0" xmlns="http://www.w3.org/2000/svg"
 width="200.000000pt" height="200.000000pt" viewBox="0 0 200.000000 200.000000"
 preserveAspectRatio="xMidYMid meet">
<metadata>
Created by potrace 1.16, written by Peter Selinger 2001-2019
</metadata>
<g transform="translate(0.000000,200.000000) scale(0.100000,-0.100000)"
fill="#000000" stroke="none">
<path d="M1231 1222 c-14 -33 -83 -103 -122 -123 l-27 -14 107 -170 c59 -93
142 -226 185 -294 42 -68 80 -129 82 -135 3 -7 -14 -22 -36 -35 -39 -22 -58
-41 -21 -21 28 15 31 13 31 -20 0 -64 48 -113 75 -76 13 17 10 102 -6 150 -18
58 -11 103 21 133 23 22 33 42 40 88 19 111 -7 180 -88 235 -25 18 -64 70
-124 165 -48 77 -91 141 -96 143 -5 1 -15 -10 -21 -26z"/>
<path d="M710 1212 c0 -12 -7 -25 -15 -28 -8 -4 -15 -12 -15 -19 0 -7 -10 -25
-22 -41 -13 -15 -34 -51 -48 -79 -20 -40 -35 -55 -73 -74 -82 -41 -117 -107
-118 -226 -1 -68 20 -107 69 -129 l40 -18 46 27 c26 15 49 25 51 23 6 -6 -89
-156 -119 -187 -14 -14 -30 -47 -37 -73 -16 -57 -3 -78 47 -78 43 0 68 34 62
86 -4 33 -3 35 21 29 21 -5 18 -1 -14 21 -22 15 -42 28 -44 30 -2 1 60 103
137 226 185 296 222 357 222 366 0 4 -20 15 -44 25 -53 22 -110 71 -131 112
-13 27 -15 28 -15 7z"/>
<path d="M855 558 c-64 -106 -121 -194 -125 -196 -4 -2 1 -21 12 -43 35 -72
100 -74 191 -4 25 19 54 35 65 35 10 0 39 -16 65 -36 27 -21 61 -38 84 -41 43
-6 113 18 113 38 0 7 12 26 28 42 23 25 24 28 5 18 -12 -6 -24 -11 -26 -11 -2
0 -57 88 -122 195 -106 176 -121 195 -145 195 -24 0 -39 -19 -145 -192z"/>
</g>
</svg>
